<svg fill="none" height="550" viewBox="0 0 550 550" width="550" xmlns="http://www.w3.org/2000/svg"><path d="m34 66.57c14.28-5.59 81.54-6.26 134.66 19.09 0 0 41.34 259.8 107.63 315.44 60.39-54.87 63.79-188.88 70.88-238.93 15.78 66.56 68.66 94.86 132.83 56.29-40.5 79.45-100.42 223.5-203.71 282.23-113.77-62.79-229.21-354.73-242.29-434.12z" fill="#f8feff"/><path d="m489.46 137.13c11.21-39.78-2.88-78.58-31.51-86.65-28.62-8.07-60.91 17.64-72.13 57.42s2.88 78.58 31.51 86.65c28.61 8.07 60.91-17.64 72.13-57.42z" fill="#e53b46"/></svg>