<svg fill="none" height="175" viewBox="0 0 1037 175" width="1037" xmlns="http://www.w3.org/2000/svg"><path d="m11.7576 21.6774c4.183-1.6217 23.8854-1.8161 39.4458 5.5382 0 0 12.1097 75.3704 31.528 91.5124 17.6896-15.918 18.6856-54.7961 20.7626-69.3161 4.623 19.3097 20.113 27.5199 38.91 16.3303-11.864 23.0492-29.416 64.8398-59.6726 81.8778-33.3266-18.216-67.1423-102.9108-70.9738-125.9426z" fill="#122755"/><path d="m145.175 42.1476c3.284-11.5406-.843-22.7969-9.23-25.1381-8.384-2.3411-17.842 5.1176-21.129 16.6582-3.287 11.5405.844 22.7968 9.23 25.138 8.381 2.3412 17.843-5.1176 21.129-16.6581z" fill="#e53b46"/><g fill="#122755"><path d="m401.085 43.713c2.909-7.3283-.407-14.5403-7.27-16.1107-6.863-1.5703-14.831 3.0826-17.739 10.4109s.407 14.5403 7.27 16.1106c6.921 1.5704 14.831-3.0825 17.739-10.4108z"/><path d="m777.267 43.713c2.908-7.3283-.407-14.5403-7.27-16.1107-6.863-1.5703-14.831 3.0826-17.74 10.4109-2.908 7.3283.408 14.5403 7.271 16.1106 6.921 1.5704 14.831-3.0825 17.739-10.4108z"/><path d="m239.044 120.366.232-.872h-21.752l-.174.407c-3.141 7.212-9.306 10.876-18.205 10.876-11.632 0-19.775-8.201-20.938-20.938h62.058v-6.107c0-27.1613-16.459-44.726-41.992-44.726s-43.156 19.4258-43.156 45.249c0 27.045 17.739 45.25 44.145 45.25 19.774 0 35.769-11.691 39.84-29.023zm-60.139-24.5846c0-12.4709 8.185-20.3532 19.31-20.2352 11.017.1169 18.902 7.6545 18.902 20.2352z"/><path d="m250.368 147.413h23.963v-38.502c0-16.6344 8.201-25.7657 23.09-25.7657 2.094 0 3.722 0 5.351.1745h.814v-22.5666l-.523-.1744c-1.513-.4653-3.781-.698-6.805-.698-11.225 0-19.194 4.5991-22.916 14.7191v-13.7303h-22.974z"/><path d="m365.763 146.366.465-.175v-19.717l-.989.349c-2.384.931-5.699 1.396-9.131 1.396-7.037 0-10.643-3.722-10.643-11.05v-36.9327h20.53v-19.484h-20.53v-22.3921h-23.963v22.3921h-13.668v19.484h13.668v37.5717c0 20.066 9.771 30.651 28.15 30.651 6.34 0 12.505-.814 16.053-2.152z"/><path d="m400.539 60.8698h-23.962v86.5442h23.962z"/><path d="m496.758 115.016.116-.814h-22.915l-.175.524c-1.57 5.35-6.048 14.365-18.204 14.365-14.191 0-20.647-12.97-20.647-24.951s6.456-24.7765 20.647-24.7765c12.214 0 16.634 8.8987 18.204 14.1913l.175.5235h22.915l-.116-.8143c-2.792-20.8798-19.019-34.3151-41.294-34.3151-25.649 0-44.261 19.0187-44.261 45.2491 0 26.231 18.612 45.25 44.261 45.25 22.275 0 38.502-13.494 41.294-34.315z"/><path d="m559.515 137.931v9.48h23.148v-55.7184c0-20.531-14.075-32.803-37.689-32.803-20.181 0-34.954 11.3415-37.688 28.9062l-.116.8142h22.857l.116-.6398c.989-6.6885 6.863-10.9924 14.89-10.9924 8.956 0 13.9 4.711 13.9 13.2026v2.4427l-20.007 1.5704c-22.916 1.6867-34.548 11.0505-34.548 27.7425 0 16.693 11.981 27.394 30.476 27.394 10.818 0 20.182-4.42 24.777-11.457zm-.64-28.906v4.943c0 11.749-6.747 18.728-18.03 18.728-8.259 0-13.435-4.362-13.435-11.399 0-7.038 4.769-10.179 15.936-11.051l15.471-1.221z"/><path d="m621.623 26.4952h-23.963v120.9168h23.963z"/><path d="m690.247 147.414h24.021l31.93-86.5442h-24.078l-19.892 58.3352-19.833-58.3352h-24.253z"/><path d="m776.729 60.8698h-23.962v86.5442h23.962z"/><path d="m898.928 146.89.174.524h21.113l19.193-59.2666 19.019 58.7426.174.524h21.113l24.896-86.5442h-24.024l-12.214 54.6132-17.913-54.6132h-22.101l-17.914 54.6132-12.214-54.6132h-24.079z"/><path d="m871.478 120.366.233-.873h-21.753l-.174.408c-3.141 7.212-9.306 10.876-18.205 10.876-11.632 0-19.774-8.201-20.938-20.938h62.058v-6.107c0-27.1615-16.459-44.7262-41.992-44.7262s-43.156 19.4259-43.156 45.2492c0 27.045 17.739 45.25 44.145 45.25 19.774 0 35.769-11.691 39.84-29.023zm-60.139-24.5847c0-12.471 8.185-20.3533 19.31-20.2352 11.017.1169 18.902 7.6545 18.902 20.2352z"/></g><path d="m1023.29 120.948c-6.92-1.57-14.83 3.083-17.74 10.411s.41 14.54 7.27 16.111c6.92 1.57 14.83-3.083 17.74-10.411s-.41-14.54-7.27-16.111z" fill="#e53b46"/></svg>